<svg width="135" height="81" viewBox="0 0 135 81" fill="none" xmlns="http://www.w3.org/2000/svg">
<path d="M48.5449 69.7644C48.119 69.2725 47.7037 68.772 47.3012 68.263C45.0268 68.8359 42.6458 69.1404 40.1925 69.1404C24.2075 69.1404 11.2487 56.1838 11.2487 40.1966C11.2487 24.2095 24.2075 11.2528 40.1925 11.2528C42.648 11.2528 45.0289 11.5574 47.3033 12.1345C47.7058 11.6255 48.1211 11.1229 48.547 10.631C50.8875 7.92211 53.5346 5.50711 56.4394 3.42646C51.4731 1.22655 45.9744 0.00415039 40.1946 0.00415039C17.9975 0.00415039 0 18.0016 0 40.1988C0 62.3959 17.9975 80.3934 40.1946 80.3934C45.9787 80.3934 51.4753 79.171 56.4437 76.9732C53.5368 74.8926 50.8896 72.4754 48.5449 69.7644Z" fill="currentColor"/>
<path d="M82.7593 0.00426342C74.9457 0.00426342 67.6495 2.23398 61.4757 6.09287C58.0534 8.23315 54.974 10.876 52.3439 13.9171C46.2468 20.9641 42.5625 30.1492 42.5625 40.1968C42.5625 50.2444 46.2468 59.4294 52.3439 66.4764C54.974 69.5175 58.0513 72.1604 61.4757 74.3007C67.6495 78.1595 74.9435 80.3893 82.7593 80.3893C104.956 80.3893 122.954 62.3918 122.954 40.1946C122.954 17.9975 104.956 0 82.7593 0V0.00426342ZM82.7593 69.1427C78.4212 69.1427 74.3046 68.1886 70.6076 66.4806C67.1384 64.8728 64.0398 62.5962 61.4757 59.8192C56.7203 54.6612 53.8112 47.7719 53.8112 40.201C53.8112 32.6302 56.7182 25.7408 61.4757 20.5829C64.0377 17.8058 67.1363 15.5293 70.6076 13.9214C74.3046 12.2134 78.4212 11.2594 82.7593 11.2594C98.7443 11.2594 111.703 24.216 111.703 40.2032C111.703 56.1903 98.7443 69.1469 82.7593 69.1469V69.1427Z" fill="currentColor"/>
<path d="M128.581 80.3936C131.688 80.3936 134.207 77.8745 134.207 74.7671C134.207 71.6597 131.688 69.1406 128.581 69.1406C125.473 69.1406 122.954 71.6597 122.954 74.7671C122.954 77.8745 125.473 80.3936 128.581 80.3936Z" fill="currentColor"/>
</svg>
